<svg width="1036" height="516" viewBox="0 0 1036 516" fill="none" xmlns="http://www.w3.org/2000/svg">
<path d="M328.313 181.829C317.13 182.462 293.567 178.819 273.236 175.551C251.948 155.432 272.446 135.055 272.446 135.055L428.624 0.990137C419.453 0.65349 414.663 0 401.11 0C362.029 32.9716 219.98 126.302 228.816 154.343C229.044 157.598 230.181 160.766 232.138 163.597C234.095 166.428 236.818 168.845 240.094 170.66C234.299 170.185 232.911 170.838 232.025 172.383C230.133 175.789 234.994 178.779 247.326 184.641L249.05 185.453C250.008 186.007 250.99 186.522 251.996 187.037C239.065 186.027 228.409 186.067 224.386 188.146C223.622 188.535 223.021 189.108 222.661 189.787C222.302 190.466 222.202 191.22 222.374 191.948C223.643 197.889 245.842 206.76 276.397 214.345C260.616 212.365 243.471 209.671 230.037 207.553C202.547 203.176 201.301 203.176 199.458 204.404L198.284 205.255V206.444C198.284 211.87 209.97 216.206 238.658 225.514C241.651 226.484 244.668 227.494 247.638 228.444C226.086 255.634 139.089 361.479 120.387 407.62C137.484 398.728 167.848 389.461 193.303 393.52C194.685 393.763 196.116 393.747 197.489 393.472C198.863 393.196 200.144 392.67 201.238 391.93C202.332 391.191 203.211 390.257 203.811 389.199C204.41 388.141 204.715 386.985 204.702 385.817C204.031 327.458 263.227 266.188 285.952 244.841C286.924 243.941 287.616 242.859 287.968 241.687C288.319 240.516 288.318 239.291 287.967 238.12C287.615 236.949 286.922 235.866 285.949 234.967C284.976 234.068 283.752 233.378 282.384 232.959C272.087 229.751 257.982 225.494 251.014 224.009L240.933 220.702C230.089 217.395 219.466 213.614 209.108 209.374C214.304 210.087 221.68 211.355 228.912 212.404C255.253 216.602 291.388 222.306 310.329 221.83C311.142 221.805 311.915 221.534 312.503 221.07C313.091 220.606 313.453 219.979 313.52 219.309C313.588 218.639 313.357 217.972 312.871 217.433C312.384 216.894 311.676 216.521 310.88 216.385C261.383 207.592 234.467 196.245 229.175 191.889C235.401 190.384 252.331 191.889 269.884 194.126C293.83 201.592 320.578 204.028 323.524 202.899L325.128 202.305L325.727 199.295L324.074 198.364C321.895 197.156 295.818 192.126 270.65 188.978C264.229 186.971 258.094 184.388 252.355 181.274C252.068 181.116 251.301 180.74 250.248 180.245C246.297 178.264 243.519 176.957 241.603 175.888C247.877 176.601 258.126 178.264 267.513 179.848C289.065 183.334 315.813 187.671 328.624 186.938C329.043 186.929 329.455 186.848 329.834 186.701C330.214 186.554 330.553 186.344 330.829 186.084C331.106 185.823 331.314 185.519 331.442 185.189C331.569 184.858 331.613 184.51 331.57 184.165C331.502 183.502 331.124 182.886 330.516 182.45C329.907 182.013 329.117 181.79 328.313 181.829Z" fill="#0A301D"/>
<path d="M1036 242.069C1035.77 239.604 1034.91 237.209 1033.46 235.046C1032.01 232.883 1030.02 231.003 1027.62 229.534L986.909 202.82C985.232 201.393 982.945 200.568 980.539 200.523C978.432 200.523 976.947 201.433 974.146 203.156C969.165 206.206 966.65 207.751 965.788 208.424C943.386 224.305 919.66 238.863 894.787 251.99C891.028 253.97 884.969 257 877.235 260.564C870.038 262.785 862.114 262.785 854.917 260.564C852.235 259.634 848.02 258.188 846.536 254.941C844.692 250.98 848.116 246.425 850.535 243.415C858.309 233.856 866.972 224.812 876.445 216.365H771.56C762.779 225.817 753.999 235.27 745.219 244.722V393.461C740.86 402.857 732.967 410.847 722.701 416.252C712.436 421.657 700.342 424.192 688.202 423.482H641.435V432.056H700.535C720.891 431.641 740.236 424.633 754.406 412.541C768.577 400.449 776.439 384.239 776.301 367.4V246.306H831.378C827.973 249.791 825.522 253.845 824.194 258.188C821.989 264.725 822.662 271.696 826.091 277.86C829.52 284.025 835.484 288.984 842.92 291.853H991.674L1027.16 256.564C1029.93 254.907 1032.17 252.726 1033.71 250.205C1035.25 247.683 1036.03 244.893 1036 242.069ZM1007.26 256.901C1006.97 258.058 1006.22 259.103 1005.14 259.878C1004.06 260.653 1002.7 261.117 1001.28 261.198L921.104 261.535H905.563L962.316 231.514C962.98 230.679 963.863 229.978 964.899 229.464C965.936 228.949 967.099 228.635 968.303 228.543C969.603 228.512 970.894 228.734 972.071 229.191C973.249 229.649 974.279 230.329 975.079 231.177L1005.37 252.287C1006.1 252.883 1006.65 253.61 1006.98 254.41C1007.31 255.21 1007.42 256.062 1007.29 256.901H1007.26Z" fill="#F6CB16"/>
<path d="M627.355 217.592L594.524 245.019V419.818C594.524 437.641 576.541 465.008 530.3 465.008H359.515L347.829 478.375L323.667 437.957L303.912 476.969L275.511 379.638L252.403 490.732L229.893 429.343L212.389 465.364H203.481L189.855 442.532L174.146 465.364H7.19241V471.167H178.217L189.424 454.928L199.122 471.167H217.13L228.959 446.849L254.295 516L276.661 408.432L302.092 495.564L324.194 451.998L346.704 489.623L363.107 470.85H530.3H547.542C615.86 470.85 624.433 424.095 624.433 409.184V246.029H713.035L737.771 216.682L627.355 217.592Z" fill="#F6CB16"/>
<path d="M717.425 359.157L682.189 330.018L646.952 359.157L682.189 388.297L717.425 359.157Z" fill="#0A301D"/>
<path d="M717.439 308.273L682.202 279.134L646.965 308.273L682.202 337.413L717.439 308.273Z" fill="#0A301D"/>
<path d="M583.509 128.045C583.509 126.064 580.779 126.064 579.582 126.064C571.033 126.242 564.208 126.242 559.108 126.242C541.124 106.559 527.977 92.8947 520.171 84.9538C513.226 76.3198 509.682 69.1116 509.682 63.7252C509.682 57.2299 513.921 51.3485 522.23 46.2394C539.735 35.6845 561.838 30.3972 587.939 30.3972C596.666 30.2243 605.38 31.0642 613.825 32.8924C619.46 34.0845 624.491 36.7266 628.193 40.4372C632.12 44.6882 634.173 49.9214 634.012 55.2694C633.957 57.3236 633.757 59.3734 633.413 61.4083C633.148 62.4627 633.068 63.543 633.174 64.6163C633.174 64.953 633.581 65.9629 634.802 66.0817C635.21 66.0912 635.612 65.9951 635.951 65.807C636.29 65.6189 636.55 65.3481 636.694 65.0322C637.545 64.2126 638.195 63.2644 638.609 62.24C640.3 58.7594 641.154 55.0398 641.124 51.2891C641.125 45.7652 639.095 40.3715 635.305 35.8232C631.571 31.9314 626.594 28.9818 620.937 27.308C614.256 25.3277 605.659 24.5158 593.95 24.5158C564.711 24.5158 538.873 30.4566 517.154 41.9224C506.521 47.5266 501.134 54.6952 501.134 63.2301C501.134 70.7948 505.516 79.409 514.136 88.7757C521.464 96.875 528.073 104.321 534.132 111.093C539.208 116.797 543.91 122.077 548.236 126.936C519.093 129.134 493.686 134.025 472.661 141.51C459.108 146.441 452.522 152.56 452.522 160.184C452.522 168.422 458.892 174.423 471.464 178.007C480.943 180.602 490.887 181.847 500.87 181.69C515.72 181.67 530.422 179.242 544.141 174.541C560.305 168.898 568.495 159.689 568.495 147.154C568.43 141.386 566.601 135.725 563.179 130.698C565.573 130.559 569.165 130.441 574.194 130.322C580.396 130.144 583.509 130.045 583.509 128.045ZM459.108 162.382C459.108 157.491 465.262 152.362 476.924 147.53C490.354 142.146 504.616 138.315 519.309 136.144C525.655 135.015 536.454 133.332 552.091 131.728C556.328 136.016 558.653 141.379 558.677 146.917C558.677 155.511 552.403 162.521 540.022 167.729C527.003 173.002 512.685 175.713 498.188 175.65C489.617 175.728 481.069 174.889 472.757 173.155C469.63 172.466 466.721 171.223 464.232 169.511C460.76 166.937 459.108 164.699 459.108 162.382Z" fill="#0A301D"/>
<path d="M692.345 152.758L692.68 152.481V152.065C692.737 151.61 692.613 151.151 692.328 150.759C692.044 150.366 691.612 150.06 691.1 149.887C690.637 149.746 690.135 149.72 689.654 149.811C689.174 149.903 688.736 150.108 688.394 150.402L686.358 152.382C677.594 161.234 657.072 181.948 645.099 182.819C644.249 182.923 643.383 182.877 642.557 182.682C641.731 182.487 640.965 182.149 640.31 181.69C631.234 175.254 662.508 140.342 677.546 123.549C682.024 118.539 685.592 114.559 687.46 112.143L687.604 111.905C687.771 111.065 687.53 110.203 686.933 109.509C686.658 109.144 686.282 108.837 685.837 108.614C685.392 108.39 684.89 108.256 684.371 108.222C683.486 108.23 682.634 108.505 681.976 108.994C680.459 110.258 678.465 111.055 676.325 111.252C675.444 111.277 674.561 111.23 673.691 111.113H672.565C668.745 110.025 664.75 109.411 660.712 109.291C657.199 109.285 653.718 109.844 650.463 110.935C637.819 114.896 623.188 123.688 607.024 136.857C589.184 151.61 580.132 163.967 580.132 173.571C580.132 178.839 582.527 181.492 587.316 181.492C589.516 181.409 591.641 180.812 593.447 179.769C606.28 173.287 618.417 165.907 629.725 157.709C640.066 150.538 649.856 142.839 659.036 134.659L658.772 134.956C649.768 145.511 625.87 173.512 631.857 187.512L632 187.73C632.709 188.696 633.693 189.504 634.865 190.084C636.038 190.664 637.365 190.998 638.729 191.057H639.328C652.57 191.057 674.601 169.769 686.526 158.244C689.088 155.768 691.124 153.788 692.345 152.758ZM600.056 170.304C598.523 170.304 597.015 170.007 597.015 166.6C597.005 165.196 597.297 163.802 597.877 162.481C603.589 152.44 611.177 143.204 620.362 135.114C631.521 124.896 640.86 118.955 648.14 117.45C649.856 117.057 651.627 116.85 653.408 116.836C659.131 116.836 663.13 119.411 663.13 121.727C663.135 121.864 663.097 121.998 663.022 122.12C662.947 122.241 662.836 122.344 662.699 122.421C639.735 144.996 620.219 160.402 603.121 169.432C602.193 169.912 601.144 170.21 600.056 170.304Z" fill="#0A301D"/>
<path d="M757.024 125.985C757.513 126.197 758.064 126.29 758.615 126.255C759.165 126.22 759.693 126.058 760.137 125.787C762.077 124.876 764.926 122.302 764.926 120.559C764.937 120.364 764.892 120.169 764.797 119.991C764.701 119.812 764.557 119.654 764.376 119.529L764.088 119.371C760.776 118.282 757.191 117.881 753.648 118.203H753.241C747.901 120.044 740.788 123.985 731.497 130.243C723.527 135.45 716.189 141.286 709.586 147.669C709.025 148.159 708.326 148.527 707.551 148.738C707.325 148.811 707.093 148.871 706.857 148.917C706.966 148.637 707.102 148.366 707.264 148.105C712.834 140.078 719.075 132.382 725.942 125.074C726.405 124.679 726.701 124.169 726.783 123.622C726.865 123.076 726.729 122.522 726.397 122.044C726.165 121.605 725.778 121.233 725.287 120.979C724.795 120.724 724.222 120.599 723.643 120.618C723.327 120.604 723.012 120.651 722.721 120.754C722.43 120.857 722.172 121.014 721.967 121.213C713.178 125.549 707.91 127.985 706.282 128.5L705.851 128.619L705.659 128.955C705.492 129.267 705.405 129.604 705.405 129.946C705.405 130.287 705.492 130.624 705.659 130.936C705.898 131.463 706.083 132.006 706.21 132.56C706.106 133.927 705.708 135.268 705.037 136.52C700.128 146.025 690.669 159.768 676.708 177.492C676.464 177.865 676.313 178.274 676.264 178.696C676.214 179.117 676.268 179.543 676.421 179.947C676.708 180.799 677.283 181.076 677.714 181.136H678.025C678.337 181.108 678.638 181.025 678.907 180.892C679.175 180.758 679.406 180.578 679.582 180.363C682.323 179.045 685.181 177.9 688.13 176.937C689.119 176.625 689.931 176.017 690.405 175.234C706.809 152.996 725.702 136.896 746.536 127.411C751.181 125.629 754.558 125.134 757.024 125.985Z" fill="#0A301D"/>
<path d="M960.807 119.529L960.52 119.371C957.208 118.282 953.623 117.881 950.08 118.203H949.672C944.356 120.044 937.22 123.985 927.929 130.243C919.97 135.46 912.633 141.295 906.018 147.669C905.461 148.163 904.761 148.531 903.983 148.738C903.757 148.811 903.525 148.871 903.288 148.917C903.398 148.637 903.534 148.366 903.695 148.105C909.266 140.078 915.507 132.382 922.374 125.074C922.837 124.679 923.133 124.169 923.215 123.622C923.297 123.076 923.161 122.522 922.829 122.044C922.597 121.605 922.21 121.233 921.719 120.979C921.227 120.724 920.654 120.599 920.075 120.618C919.759 120.604 919.443 120.651 919.153 120.754C918.862 120.857 918.604 121.014 918.399 121.213C911.789 124.539 907.24 126.738 904.605 127.827C906.292 126.686 907.826 125.398 909.179 123.985C910.281 122.44 909.778 121.391 908.988 120.975C908.197 120.559 906.737 120.599 905.515 122.064C901.481 125.234 896.41 127.355 890.932 128.163C881.208 128.948 871.439 129.278 861.67 129.153C870.865 126.46 878.073 122.044 881.401 116.816C882.769 114.264 883.24 111.446 882.762 108.683C882.283 105.92 880.874 103.324 878.695 101.192C877.405 99.9365 875.655 99.0636 873.709 98.7062C871.764 98.3488 869.731 98.5263 867.92 99.2117C858.796 102.36 847.182 110.479 837.149 120.995C836.572 121.233 836.084 121.596 835.736 122.044C831.689 125.211 826.612 127.331 821.129 128.144C811.405 128.929 801.635 129.259 791.866 129.134C801.085 126.44 808.269 122.024 811.598 116.797C812.971 114.246 813.445 111.426 812.967 108.662C812.488 105.898 811.076 103.302 808.892 101.172C807.604 99.9139 805.853 99.0391 803.907 98.6815C801.961 98.3239 799.927 98.5031 798.116 99.1919C778.193 106.063 746.392 136.659 744.979 163.214C744.988 165.866 745.705 168.484 747.079 170.881C748.453 173.277 750.451 175.393 752.929 177.076C756.187 179.62 760.429 181.129 764.902 181.334C765.529 181.329 766.153 181.282 766.77 181.195C776.349 179.73 787.58 173.769 794.213 169.313C794.704 169.12 795.12 168.817 795.416 168.44C795.712 168.062 795.876 167.624 795.889 167.175C795.864 166.882 795.745 166.601 795.542 166.36C795.34 166.12 795.062 165.929 794.74 165.808C794.145 165.64 793.508 165.602 792.891 165.7C792.273 165.797 791.697 166.025 791.22 166.363C784.491 170.007 773.284 174.284 764.543 175.175C763.007 175.382 761.436 175.313 759.935 174.971C758.435 174.629 757.042 174.023 755.851 173.195C753.456 171.214 752.211 167.927 752.474 163.293C753.217 152.64 760.185 142.52 767.01 134.005H771.799C788.346 134.005 813.394 134.005 821.56 132.975C823.972 132.602 826.304 131.935 828.48 130.995C820.841 141.154 815.381 152.461 814.807 163.115C814.828 165.766 815.551 168.38 816.925 170.775C818.298 173.169 820.289 175.286 822.757 176.977C826.014 179.521 830.256 181.03 834.73 181.235C835.364 181.229 835.996 181.182 836.622 181.096C846.2 179.631 857.407 173.67 864.064 169.214C864.551 169.018 864.962 168.714 865.254 168.337C865.545 167.96 865.705 167.523 865.717 167.076C865.692 166.783 865.572 166.502 865.37 166.261C865.167 166.021 864.89 165.83 864.567 165.709C863.973 165.541 863.335 165.503 862.718 165.601C862.101 165.698 861.525 165.926 861.047 166.264C854.342 169.908 843.135 174.185 834.395 175.076C832.859 175.285 831.287 175.216 829.786 174.874C828.285 174.532 826.892 173.925 825.702 173.096C823.188 171.115 822.038 167.828 822.302 163.194C823.044 152.541 830.013 142.421 836.861 133.906H841.65C858.197 133.906 883.245 133.906 891.387 132.876C895.198 132.305 898.816 131.063 901.995 129.233C901.856 129.748 901.906 130.286 902.139 130.777C902.378 131.305 902.562 131.848 902.69 132.401C902.596 133.77 902.199 135.112 901.516 136.362C896.607 145.847 887.149 159.61 873.188 177.334C872.944 177.706 872.793 178.115 872.743 178.537C872.694 178.959 872.747 179.385 872.901 179.789C873.188 180.641 873.763 180.918 874.194 180.977H874.505C874.817 180.95 875.117 180.867 875.386 180.733C875.655 180.6 875.886 180.42 876.061 180.205C878.803 178.886 881.66 177.741 884.61 176.779C885.599 176.466 886.411 175.859 886.885 175.076C903.288 152.838 922.182 136.738 943.015 127.252C947.637 125.272 951.013 124.757 953.48 125.609C953.969 125.82 954.52 125.914 955.071 125.879C955.621 125.844 956.149 125.682 956.593 125.411C958.557 124.5 961.382 121.925 961.382 120.183C961.282 119.919 961.08 119.689 960.807 119.529ZM804.486 114.282C798.954 121.945 784.515 128.282 771.296 129.074C781.809 118.638 790.836 111.549 798.858 107.43C800.278 106.627 801.932 106.155 803.648 106.063C804.058 106.045 804.469 106.095 804.856 106.211C805.243 106.327 805.597 106.505 805.899 106.737C807.12 107.707 807.479 110.281 804.486 114.282ZM874.265 114.282C868.734 121.945 854.318 128.282 841.1 129.074C851.588 118.638 860.64 111.549 868.662 107.43C870.081 106.627 871.736 106.155 873.451 106.063C873.862 106.043 874.274 106.092 874.661 106.208C875.048 106.323 875.402 106.504 875.702 106.737C876.9 107.707 877.259 110.281 874.265 114.282Z" fill="#0A301D"/>
<path d="M260.688 171.472C249.529 169.016 237.125 164.046 236.503 154.026V153.372L236.311 152.758C235.569 150.323 236.048 139.827 274.314 106.677C299.577 84.7755 333.389 59.7251 360.521 39.5857C378.432 26.3376 394.046 14.7728 404.318 6.33688C407.12 6.33688 409.515 6.33688 411.646 6.4953L266.795 130.837L266.603 131.015C258.868 138.619 250.32 155.036 260.688 171.472Z" fill="#F6CB16"/>
<path d="M228.504 236.801C165.406 306.23 98.8829 374.272 30.2288 439.938C92.4893 369.691 158.581 301.979 228.504 236.801Z" fill="#0A301D"/>
<path d="M236.311 395.065C235.697 395.071 235.095 394.923 234.585 394.641C234.074 394.359 233.679 393.955 233.451 393.484C233.223 393.012 233.173 392.495 233.307 391.999C233.441 391.504 233.754 391.054 234.204 390.708C246.823 380.807 255.109 370.47 258.629 360.37C258.111 360.118 257.629 359.82 257.192 359.479C251.996 355.281 255.444 346.211 258.006 342.013C258.797 340.686 260.401 337.954 263.394 338.35C266.914 338.805 267.25 341.795 266.579 351.855C266.579 353.34 266.268 354.825 265.981 356.311C272.113 355.276 277.685 352.646 281.881 348.805C282.52 348.213 283.12 347.591 283.677 346.944C283.651 341.068 285.946 335.345 290.214 330.646C290.641 330.223 291.212 329.916 291.852 329.764C292.492 329.613 293.173 329.623 293.806 329.795L295.363 330.23L295.889 331.696C296.488 333.577 295.051 341.419 289.975 348.231C290.112 348.86 290.321 349.476 290.597 350.073C292.154 353.42 296.44 357.024 301.277 357.103C314.855 357.4 320.219 345.538 321.129 343.241C321.385 342.571 321.914 341.996 322.626 341.613C323.337 341.23 324.188 341.063 325.032 341.142C325.956 341.214 326.822 341.547 327.484 342.084C328.147 342.621 328.566 343.33 328.672 344.092C329.51 350.568 331.067 353.637 332.048 354.41C333.533 353.717 337.149 350.449 342.226 343.617L343.615 341.736L346.32 342.548C347.04 342.817 347.62 343.291 347.954 343.883C348.287 344.475 348.354 345.147 348.14 345.776C346.967 349.162 346.991 352.113 348.14 353.697C348.603 354.218 349.199 354.648 349.886 354.957C350.574 355.265 351.335 355.443 352.115 355.479C354.862 355.707 357.608 355.047 359.778 353.637C362.987 351.122 363.107 346.271 363.155 344.429C363.092 343.947 363.158 343.459 363.348 343.001C363.539 342.542 363.849 342.124 364.256 341.775L365.238 341.043H366.555C367.657 341.043 369.501 341.657 369.405 344.37C369.244 346.579 369.577 348.795 370.387 350.905C371.426 351.829 372.74 352.512 374.198 352.885C375.656 353.257 377.207 353.307 378.696 353.028C380.185 352.749 381.559 352.152 382.681 351.296C383.803 350.441 384.633 349.356 385.09 348.152C384.529 344.435 385.148 340.661 386.886 337.201L387.867 335.815H389.927C390.885 335.815 392.537 336.35 392.848 338.587C393.153 341.968 392.657 345.365 391.387 348.588C391.642 349.534 392.105 350.433 392.752 351.241C393.641 352.219 394.776 353.027 396.078 353.608C397.38 354.189 398.819 354.53 400.296 354.608C403.303 354.55 406.202 353.665 408.533 352.093C411.827 349.659 414.372 346.611 415.956 343.201C413.37 330.924 420.53 317.874 424.481 314.19C424.966 313.601 425.647 313.139 426.441 312.862C427.236 312.584 428.11 312.502 428.959 312.626C429.58 312.77 430.137 313.06 430.562 313.461C430.987 313.862 431.262 314.356 431.354 314.883C432.024 317.854 428.432 332.508 422.326 343.855C422.579 344.694 422.891 345.521 423.26 346.33C425.391 350.984 428.049 353.618 430.923 354.251C433.283 354.52 435.687 354.217 437.843 353.38C440.377 352.771 442.586 351.47 444.112 349.69C445.638 347.911 446.391 345.756 446.249 343.578C446.249 342.31 446.249 341.261 446.249 340.587C446.171 340.143 446.215 339.691 446.377 339.262C446.538 338.834 446.814 338.441 447.182 338.112L448.14 337.34L450.75 337.439L451.636 338.231C451.971 338.57 452.211 338.965 452.34 339.39C452.468 339.814 452.481 340.257 452.379 340.686C452.445 341.669 452.445 342.654 452.379 343.637C452.47 345.171 452.833 346.685 453.456 348.132C453.576 348.39 456.306 354.172 461.191 354.707C464.256 355.024 467.058 353.142 468.71 352.033C471.142 350.374 473.056 348.255 474.29 345.855C474.035 343.967 473.9 342.07 473.883 340.171C473.739 329.636 477.283 317.973 480.276 315.834C480.653 315.554 481.099 315.346 481.582 315.223C482.066 315.1 482.576 315.065 483.078 315.121L484.419 315.299L485.401 316.388C487.795 319.299 485.64 332.349 483.174 340.033C482.484 342.277 481.612 344.48 480.564 346.627C480.683 347.498 480.851 348.35 481.043 349.202C482.072 350.786 485.592 355.657 490.31 355.915C493.614 356.073 496.919 353.776 501.134 350.845L501.876 350.33C504.444 348.459 506.89 346.476 509.203 344.389C511.909 342.033 513.274 340.845 515.525 341.894L517.609 342.884L516.962 344.984C515.932 347.974 515.956 350.251 516.962 351.617C517.351 352.037 517.837 352.388 518.392 352.65C518.947 352.912 519.56 353.079 520.195 353.142C522.182 353.301 527.379 348.984 530.683 338.231C530.781 337.91 530.954 337.607 531.193 337.342C531.431 337.076 531.731 336.851 532.074 336.681C532.418 336.511 532.799 336.399 533.195 336.35C533.591 336.302 533.995 336.318 534.383 336.399C534.771 336.48 535.137 336.623 535.458 336.82C535.78 337.018 536.051 337.265 536.257 337.549C536.462 337.834 536.599 338.148 536.657 338.476C536.716 338.803 536.696 339.137 536.598 339.459C532.958 351.34 526.205 358.727 519.572 358.172C518.088 358.017 516.658 357.608 515.376 356.971C514.094 356.333 512.986 355.481 512.125 354.469C511.222 353.35 510.633 352.078 510.401 350.746C509.036 351.875 507.527 353.063 505.947 354.152L505.204 354.667C500.128 358.192 495.817 361.261 489.999 360.925C483.294 360.548 478.792 355.816 476.541 352.667C475.417 353.873 474.123 354.963 472.685 355.915C470.578 357.34 466.172 360.291 460.497 359.677C454.821 359.063 451.134 355.142 449.29 352.39C448.778 353.036 448.201 353.646 447.566 354.212C445.505 355.909 443.02 357.213 440.286 358.034C437.003 359.213 433.382 359.597 429.845 359.143C423.691 358.014 420.267 353.202 418.71 350.053C417.07 352.463 414.863 354.577 412.221 356.271C408.777 358.529 404.499 359.738 400.104 359.697C397.709 359.574 395.377 359.015 393.274 358.06C391.171 357.105 389.349 355.777 387.939 354.172C386.318 355.747 384.206 356.925 381.833 357.578C379.21 358.27 376.411 358.371 373.725 357.869C371.04 357.368 368.564 356.283 366.555 354.726C365.911 355.663 365.104 356.517 364.161 357.261C362.417 358.481 360.388 359.391 358.2 359.933C356.012 360.474 353.712 360.637 351.445 360.41C349.799 360.275 348.209 359.841 346.789 359.14C345.369 358.438 344.154 357.485 343.231 356.35C342.533 355.429 342.024 354.419 341.723 353.36C335.161 360.41 332.144 359.697 330.707 359.301C329.271 358.905 325.918 358.192 323.907 350.568C320.267 355.816 313.322 362.291 301.277 362.133C294.285 362.014 288.322 357.598 285.617 352.964C279.941 357.756 271.416 361.281 264.855 361.459H264.735C260.976 372.529 252.068 383.718 238.538 394.332C238.246 394.572 237.898 394.761 237.515 394.887C237.133 395.013 236.723 395.074 236.311 395.065Z" fill="#0A301D"/>
<path d="M356.291 307.79C357.585 304.585 356.661 301.441 354.227 300.769C351.793 300.098 348.772 302.152 347.478 305.357C346.184 308.563 347.107 311.706 349.541 312.378C351.975 313.05 354.997 310.996 356.291 307.79Z" fill="#0A301D"/>
<path d="M301.916 316.346C303.21 313.14 302.286 309.997 299.852 309.325C297.419 308.653 294.397 310.707 293.103 313.913C291.809 317.118 292.733 320.262 295.166 320.933C297.6 321.605 300.622 319.551 301.916 316.346Z" fill="#0A301D"/>
<path d="M264.939 317.109C266.233 313.903 265.309 310.76 262.875 310.088C260.441 309.416 257.42 311.47 256.126 314.676C254.832 317.881 255.756 321.025 258.189 321.696C260.623 322.368 263.645 320.314 264.939 317.109Z" fill="#0A301D"/>
<path d="M342.92 322.287C344.214 319.082 343.29 315.938 340.857 315.266C338.423 314.595 335.401 316.649 334.107 319.854C332.813 323.06 333.737 326.203 336.171 326.875C338.604 327.547 341.626 325.493 342.92 322.287Z" fill="#0A301D"/>
<path d="M358.269 322.287C359.563 319.081 358.639 315.938 356.205 315.266C353.772 314.594 350.75 316.648 349.456 319.854C348.162 323.059 349.086 326.203 351.519 326.875C353.953 327.546 356.975 325.492 358.269 322.287Z" fill="#0A301D"/>
<path d="M377.001 374.889C378.295 371.683 377.372 368.54 374.938 367.868C372.504 367.196 369.482 369.25 368.188 372.456C366.894 375.661 367.818 378.805 370.252 379.476C372.686 380.148 375.707 378.094 377.001 374.889Z" fill="#0A301D"/>
<path d="M392.35 374.908C393.644 371.703 392.72 368.559 390.287 367.887C387.853 367.216 384.831 369.27 383.537 372.475C382.243 375.681 383.167 378.824 385.601 379.496C388.034 380.168 391.056 378.114 392.35 374.908Z" fill="#0A301D"/>
<path d="M435.83 374.896C437.124 371.69 436.2 368.547 433.766 367.875C431.333 367.204 428.311 369.258 427.017 372.463C425.723 375.669 426.647 378.812 429.08 379.484C431.514 380.156 434.536 378.102 435.83 374.896Z" fill="#0A301D"/>
<path d="M451.186 374.897C452.48 371.691 451.556 368.548 449.123 367.876C446.689 367.204 443.667 369.258 442.373 372.464C441.079 375.669 442.003 378.813 444.437 379.484C446.87 380.156 449.892 378.102 451.186 374.897Z" fill="#0A301D"/>
<path d="M514.395 374.893C515.689 371.687 514.765 368.544 512.332 367.872C509.898 367.2 506.876 369.254 505.582 372.46C504.288 375.665 505.212 378.808 507.646 379.48C510.08 380.152 513.101 378.098 514.395 374.893Z" fill="#0A301D"/>
<path d="M529.744 374.912C531.038 371.706 530.114 368.563 527.681 367.891C525.247 367.219 522.225 369.274 520.931 372.479C519.637 375.685 520.561 378.828 522.995 379.5C525.428 380.172 528.45 378.118 529.744 374.912Z" fill="#0A301D"/>
<path d="M486.964 375.586C488.272 372.375 487.356 369.222 484.919 368.543C482.482 367.864 479.446 369.916 478.138 373.127C476.83 376.337 477.746 379.49 480.183 380.169C482.621 380.848 485.657 378.796 486.964 375.586Z" fill="#0A301D"/>
<path d="M519.396 388.761C520.69 385.556 519.766 382.413 517.333 381.741C514.899 381.069 511.877 383.123 510.583 386.329C509.289 389.534 510.213 392.677 512.647 393.349C515.081 394.021 518.102 391.967 519.396 388.761Z" fill="#0A301D"/>
<path d="M576.541 262.862C533.677 292.09 477.57 310.507 421.249 306.21C420.619 306.191 420 306.065 419.431 305.841C418.862 305.616 418.356 305.297 417.942 304.903C417.529 304.51 417.218 304.05 417.028 303.553C416.839 303.056 416.775 302.532 416.841 302.013C416.907 301.495 417.101 300.993 417.411 300.539C417.721 300.085 418.141 299.689 418.644 299.375C419.147 299.061 419.723 298.836 420.336 298.714C420.949 298.592 421.585 298.575 422.206 298.665C476.948 305.319 532.36 289.615 576.541 262.862Z" fill="#0A301D"/>
<path d="M7.14451 465.364C47.4223 436.65 63.7776 421.798 98.8111 388.53C119.357 369.064 130.492 354.865 158.677 324.547C188.466 292.447 221.225 256.228 251.014 224.127C255.516 225.454 260.449 225.751 264.975 227.078C223.763 275.218 156.498 349.855 120.387 407.659C91.6511 413.6 37.8437 442.71 19.9558 465.364C13.0353 465.364 17.9204 465.364 7.14451 465.364Z" fill="#F6CB16"/>
</svg>
